<?xml version="1.0"?>
<svg xmlns="http://www.w3.org/2000/svg" xmlns:xlink="http://www.w3.org/1999/xlink" xmlns:svgjs="http://svgjs.com/svgjs" version="1.1" width="512" height="512" x="0" y="0" viewBox="0 0 512 512" style="enable-background:new 0 0 512 512" xml:space="preserve" class=""><g><g xmlns="http://www.w3.org/2000/svg"><path d="m30 451h280.344c-5.167-8.86-8.344-19.023-8.344-30v-30h-287c-8.284 0-15 6.714-15 15v15c0 16.567 13.431 30 30 30z" fill="#ffffff" data-original="#000000" style="" class=""/><path d="m30 106v255h272v-180c0-33.091 26.909-60 60-60h120v-15c0-24.814-20.186-45-45-45h-362c-24.814 0-45 20.186-45 45z" fill="#ffffff" data-original="#000000" style="" class=""/><path d="m482 151h-120c-16.538 0-30 13.462-30 30v240c0 16.538 13.462 30 30 30h120c16.538 0 30-13.462 30-30v-240c0-16.538-13.462-30-30-30zm-60 45c8.284 0 15 6.714 15 15 0 8.284-6.716 15-15 15s-15-6.716-15-15c0-8.286 6.716-15 15-15zm15 210h-30c-8.291 0-15-6.709-15-15s6.709-15 15-15h30c8.291 0 15 6.709 15 15s-6.709 15-15 15z" fill="#ffffff" data-original="#000000" style="" class=""/></g></g></svg>
